<svg width="132" height="132" viewBox="0 0 132 132" fill="none" xmlns="http://www.w3.org/2000/svg">
<rect width="132" height="132" rx="28" fill="#1E1E1E"/>
<path d="M30.1893 62.067C30.1893 57.0727 34.238 53.024 39.2324 53.024C44.2267 53.024 48.2754 57.0727 48.2754 62.067V75.5158C48.2754 80.5101 44.2267 84.5588 39.2324 84.5588C34.238 84.5588 30.1893 80.5101 30.1893 75.5157L30.1893 62.067Z" fill="white"/>
<path d="M99.7234 42.1857C102.841 45.957 102.344 51.5343 98.6086 54.695L77.2848 72.7401C73.532 75.9159 67.908 75.4146 64.7759 71.6252C61.6948 67.8974 62.1862 62.3846 65.878 59.2605L87.3581 41.0837C91.0678 37.9444 96.6273 38.4398 99.7234 42.1857Z" fill="white"/>
<path d="M99.7234 89.7747C102.841 86.0033 102.344 80.426 98.6086 77.2653L77.2848 59.2203C73.532 56.0445 67.908 56.5457 64.7759 60.3351C61.6948 64.0629 62.1862 69.5757 65.878 72.6998L87.3581 90.8767C91.0678 94.016 96.6273 93.5205 99.7234 89.7747Z" fill="white"/>
</svg>
